<svg width="700" height="700" viewBox="0 0 700 700" fill="none" xmlns="http://www.w3.org/2000/svg">
    <circle cx="350" cy="350" r="337.5" fill="#2375EF" stroke="white" stroke-width="25" />
    <path
        d="M475 448.357L475 251.643C475 181.7 419.036 125 350 125C280.964 125 225 181.7 225 251.643L225 448.357C225 518.3 280.964 575 350 575C419.036 575 475 518.3 475 448.357Z"
        fill="#F7F7FA" />
    <path
        d="M351.138 550C405.738 550 450 505.228 450 450C450 394.772 405.738 350 351.138 350H348.862C294.262 350 250 394.772 250 450C250 505.228 294.262 550 348.862 550H351.138Z"
        fill="#2375EF" />
</svg>