<svg width="700" height="700" viewBox="0 0 700 700" fill="none" xmlns="http://www.w3.org/2000/svg">
    <circle cx="350" cy="350" r="340" fill="white" stroke="#2375EF" stroke-width="20" />
    <path
        d="M475 448.357L475 251.643C475 181.7 419.036 125 350 125C280.964 125 225 181.7 225 251.643L225 448.357C225 518.3 280.964 575 350 575C419.036 575 475 518.3 475 448.357Z"
        fill="#2375EF" />
    <path
        d="M351.251 560C411.312 560 460 510.751 460 450C460 389.249 411.312 340 351.251 340H348.749C288.688 340 240 389.249 240 450C240 510.751 288.688 560 348.749 560H351.251Z"
        fill="#F7F7FA" />
</svg>